<svg width="20" height="20" viewBox="0 0 20 20" fill="none" xmlns="http://www.w3.org/2000/svg">
<path d="M17.6749 13.2417C17.1448 14.4954 16.3156 15.6002 15.2598 16.4594C14.2041 17.3187 12.9539 17.9062 11.6186 18.1707C10.2833 18.4351 8.90361 18.3685 7.60005 17.9765C6.29649 17.5845 5.10878 16.8792 4.14078 15.9222C3.17277 14.9652 2.45394 13.7856 2.04712 12.4866C1.64031 11.1876 1.5579 9.80874 1.80709 8.47053C2.05629 7.13232 2.62951 5.87553 3.47663 4.81003C4.32376 3.74453 5.419 2.90277 6.6666 2.35834" stroke="#5E5E5E" stroke-opacity="0.8" stroke-width="2" stroke-linecap="round" stroke-linejoin="round"/>
<path d="M18.3333 10C18.3333 8.90567 18.1178 7.82204 17.699 6.81099C17.2802 5.79994 16.6664 4.88129 15.8926 4.10746C15.1187 3.33364 14.2001 2.71981 13.189 2.30102C12.178 1.88224 11.0943 1.66669 10 1.66669V10H18.3333Z" stroke="#5E5E5E" stroke-opacity="0.8" stroke-width="2" stroke-linecap="round" stroke-linejoin="round"/>
</svg>
